<svg id="Capa_1" enable-background="new 0 0 512.32 512.32" height="512" viewBox="0 0 512.32 512.32" width="512" xmlns="http://www.w3.org/2000/svg"><g><g><g><path d="m365.486 59.633c-26.016-31.821-65.58-52.133-109.889-52.133-42.396 0-80.448 18.597-106.445 48.078-15.039 17.055-23.15 39.125-23.15 61.864v1.287 216.434c0 54.232 43.964 98.196 98.196 98.196h63.924c54.232 0 98.196-43.964 98.196-98.196v-216.435c0-21.498-7.225-42.452-20.832-59.095z" fill="#596c76"/></g><g><path d="m386.32 118.724v216.436c0 54.236-43.962 98.199-98.199 98.199h-20.858c54.226 0 98.199-43.962 98.199-98.199v-216.436c0-10.753-1.807-21.357-5.312-31.362-3.515-10.005-8.717-19.41-15.526-27.727-23.943-29.295-59.388-48.845-99.437-51.76 3.435-.25 6.909-.38 10.414-.38 44.302 0 83.871 20.319 109.881 52.14 6.799 8.317 12.012 17.723 15.526 27.727 3.504 10.004 5.312 20.608 5.312 31.362z" fill="#465a61"/></g><g><g><path d="m149.077 236.584h-4.809c-14.502 0-26.259-11.757-26.259-26.259 0-14.502 11.757-26.259 26.259-26.259h4.809z" fill="#ffa78f"/></g><g><path d="m363.243 236.584h4.809c14.502 0 26.259-11.757 26.259-26.259 0-14.502-11.757-26.259-26.259-26.259h-4.809z" fill="#ffa78f"/></g></g><g><g><path d="m429.635 504.821h-346.95c-.271-4.656-.271-9.214-.058-13.628 1.791-37.593 19.813-72.456 48.453-96.876 31.928-27.234 66.354-39.259 78.379-42.868 1.99-.597 4.011-1.069 6.048-1.48 2.055-.414 3.815-1.196 5.316-2.256 10.656-7.443 8.566-28.456 8.566-28.456h53.544s-2.091 21.013 8.566 28.456c1.501 1.06 3.261 1.841 5.316 2.256 2.037.411 4.058.883 6.048 1.48 12.025 3.609 46.451 15.634 78.379 42.868 28.64 24.42 46.662 59.283 48.453 96.876.211 4.413.211 8.972-.06 13.628z" fill="#ffa78f"/></g><g><path d="m429.635 504.821h-346.95c-.271-4.656-.271-9.214-.058-13.628 1.791-37.593 19.813-72.456 48.453-96.876 31.928-27.234 66.354-39.259 78.379-42.868 1.99-.597 4.011-1.069 6.048-1.48 2.055-.414 3.815-1.196 5.316-2.256 1.657 9.425 6.008 20.698 16.877 27.758 11.155 7.245 25.765 7.245 36.92 0 10.87-7.06 15.22-18.333 16.878-27.758 1.501 1.06 3.261 1.841 5.316 2.256 2.037.411 4.058.883 6.048 1.48 12.025 3.609 46.451 15.634 78.379 42.868 28.64 24.42 46.662 59.283 48.453 96.876.212 4.413.212 8.972-.059 13.628z" fill="#b3dafe"/></g><g><path d="m429.633 504.818h-22.166c0-2.207-.05-4.383-.15-6.53-1.797-37.602-19.819-72.458-48.455-96.881-27.108-23.114-56.014-35.275-71.48-40.627 2.127-4.373 3.385-8.896 4.114-13.07 1.495 1.058 3.25 1.837 5.296 2.251 2.045.414 4.075.885 6.073 1.485 12.03 3.612 46.451 15.638 78.373 42.872 28.646 24.422 46.668 59.279 48.455 96.871.209 4.414.209 8.976-.06 13.629z" fill="#8ac9fe"/></g></g><g><path d="m353.652 119.726 11.805 40.91v56.515c0 3.724-.187 7.409-.552 11.035-2.581 25.775-14.119 48.91-31.46 66.25-19.775 19.775-47.096 32.012-77.285 32.012-56.644 0-103.218-43.086-108.745-98.262-.365-3.626-.552-7.311-.552-11.035v-56.515l10.477-40.91z" fill="#ffcebf"/></g><g><path d="m353.652 119.722 11.809 44.721v52.709c0 3.724-.19 7.409-.559 11.033-2.576 25.78-14.118 48.915-31.461 66.248-19.77 19.78-47.087 32.011-77.281 32.011-3.365 0-6.7-.15-9.985-.46 26.21-2.356 49.733-13.978 67.296-31.551 17.343-17.333 28.885-40.468 31.461-66.248.369-3.624.559-7.309.559-11.033v-97.43h8.161z" fill="#ffb09e"/></g><g><path d="m365.457 197.455v19.696c0 3.724-.187 7.409-.552 11.035-2.581 25.775-14.119 48.91-31.46 66.25-19.775 19.775-47.096 32.012-77.285 32.012-56.644 0-103.218-43.086-108.745-98.262-.365-3.626-.552-7.311-.552-11.035v-19.696s22.59 34.408 81.896 43.808c18.146 2.876 36.655 2.876 54.802 0 59.306-9.399 81.896-43.808 81.896-43.808z" fill="#f5f8f9"/></g><g><path d="m365.462 197.452v19.7c0 3.724-.19 7.409-.559 11.033-2.576 25.78-14.118 48.915-31.461 66.248-19.77 19.78-47.087 32.011-77.281 32.011-2.535 0-4.981-.108-7.509-.26-.829-.05-1.657-.12-2.476-.2 26.21-2.356 49.733-13.978 67.296-31.551 17.343-17.333 28.885-40.468 31.461-66.248.369-3.624.559-7.309.559-11.033v-.389c13.959-10.155 19.97-19.311 19.97-19.311z" fill="#d9e7ec"/></g><g><path d="m266.652 116.727h-20.983-98.806v47.716c39.744-1.19 79.253-9.499 100.659-30.996 3.461-3.476 6.3-6.698 8.639-9.632 2.339 2.933 5.177 6.156 8.639 9.632 21.406 21.497 60.919 29.806 100.663 30.996v-47.716z" fill="#596c76"/></g></g><g><path d="m211.486 189.392c-4.143 0-7.5 3.357-7.5 7.5v13.434c0 4.143 3.357 7.5 7.5 7.5s7.5-3.357 7.5-7.5v-13.434c0-4.143-3.357-7.5-7.5-7.5z"/><path d="m300.834 217.825c4.143 0 7.5-3.357 7.5-7.5v-13.434c0-4.143-3.357-7.5-7.5-7.5s-7.5 3.357-7.5 7.5v13.434c0 4.143 3.357 7.5 7.5 7.5z"/><path d="m437.185 490.836c-1.852-38.868-20.469-76.128-51.077-102.226-1.537-1.311-3.081-2.578-4.625-3.821 7.028-13.203 11.348-28.095 12.187-43.965.219-4.136-2.957-7.666-7.094-7.885-4.127-.248-7.667 2.956-7.885 7.094-.676 12.787-3.998 24.828-9.395 35.629-27.153-18.904-53.083-28.037-64.28-31.398-2.713-.814-6.88-1.063-9.223-2.699-3.178-2.22-4.671-7.613-5.244-12.738 18.007-5.52 34.505-15.391 48.2-29.086 15.373-15.373 26.115-34.759 31.077-55.703 3.129-.163 6.143-.762 8.992-1.723v62.482c0 4.143 3.357 7.5 7.5 7.5s7.5-3.357 7.5-7.5v-72.694c4.98-5.883 7.992-13.483 7.992-21.777s-3.012-15.893-7.992-21.775v-69.823c0-23.403-8-46.076-22.525-63.842-28.519-34.881-70.689-54.886-115.696-54.886-42.856 0-83.704 18.449-112.069 50.617-16.138 18.3-25.025 42.032-25.025 66.823v71.11c-4.98 5.882-7.992 13.481-7.992 21.775s3.012 15.894 7.992 21.777v103.06c0 17.912 4.487 34.792 12.384 49.589-1.561 1.256-3.119 2.534-4.672 3.859-30.609 26.099-49.227 63.358-51.078 102.222-.234 4.85-.213 9.703.063 14.426.231 3.966 3.515 7.063 7.487 7.063h346.949c3.973 0 7.256-3.098 7.487-7.063.274-4.724.296-9.577.062-14.422zm-79.228-295.864c-2.218 2.797-7.476 8.795-16.324 15.32-11.17 8.236-30.517 19.011-59.246 23.563-17.402 2.758-35.051 2.758-52.453 0-10.629-1.685-20.763-4.339-30.118-7.889-3.872-1.471-8.204.479-9.673 4.351-1.47 3.873.479 8.204 4.351 9.673 10.316 3.915 21.45 6.835 33.093 8.68 18.961 3.006 38.188 3.006 57.148 0 36.623-5.804 60.019-20.705 73.223-32.217v.698c0 3.438-.173 6.897-.515 10.288-2.324 23.214-12.73 45.124-29.301 61.693-19.227 19.227-44.79 29.815-71.981 29.815-25.399 0-49.725-9.406-68.493-26.487-18.644-16.966-30.288-40.059-32.79-65.026-.341-3.386-.514-6.846-.514-10.283v-.734c2.249 1.96 4.792 4.018 7.643 6.11 3.337 2.447 8.032 1.73 10.484-1.609 2.45-3.34 1.729-8.033-1.609-10.484-8.974-6.586-14.294-12.658-16.518-15.46v-23.331c33.199-1.731 74.762-9.092 98.473-32.903 1.143-1.147 2.252-2.301 3.324-3.455 1.072 1.154 2.182 2.308 3.324 3.455 23.711 23.812 65.273 31.172 98.473 32.903v23.329zm-74.696 155.344c-2.172 8.319-6.328 14.582-12.392 18.645-8.799 5.895-20.621 5.895-29.418 0-6.066-4.064-10.222-10.33-12.394-18.653 4.496-5.126 6.538-11.974 7.412-18.028 6.459 1.1 13.042 1.668 19.691 1.668 6.667 0 13.248-.559 19.692-1.647.874 6.056 2.915 12.9 7.409 18.015zm-61.501-21.53c-.582 5.129-2.079 10.576-5.263 12.8-.71.501-1.52.838-2.473 1.03-2.511.506-4.71 1.045-6.723 1.648-11.19 3.359-37.102 12.486-64.241 31.373-6.108-12.192-9.558-25.936-9.558-40.475v-92.849c2.845.96 5.855 1.559 8.98 1.723 5.369 22.784 17.516 43.527 35.089 59.52 12.83 11.675 27.922 20.224 44.189 25.23zm165.051-118.461c0 8.847-6.157 16.283-14.411 18.25.368-3.768.558-7.608.558-11.423v-24.918c7.968 2.164 13.853 9.446 13.853 18.091zm-253.309-92.885c0-21.136 7.556-41.344 21.275-56.903 25.52-28.939 62.268-45.537 100.821-45.537 40.487 0 78.425 17.998 104.082 49.38 12.342 15.095 19.139 34.396 19.139 54.348v59.604c-1.885-.636-3.844-1.111-5.861-1.406v-12.483c0-4.055-3.223-7.375-7.275-7.497-44.465-1.33-78.405-11.556-95.568-28.791-2.999-3.012-5.721-6.045-8.09-9.016-1.423-1.784-3.581-2.823-5.863-2.823s-4.44 1.039-5.863 2.823c-2.369 2.971-5.091 6.004-8.09 9.016-17.163 17.235-51.104 27.461-95.568 28.791-4.053.122-7.275 3.442-7.275 7.497v12.483c-2.017.295-3.976.77-5.861 1.406v-60.892zm-7.992 92.885c0-8.646 5.884-15.927 13.854-18.092v24.918c0 3.816.19 7.658.557 11.423-8.254-1.966-14.411-9.402-14.411-18.249zm-35.535 286.995c.003-1.915.051-3.843.144-5.771 1.655-34.745 18.359-68.104 45.829-91.526 30.496-26.012 63.075-37.611 75.665-41.39 1.198-.359 2.515-.696 3.989-1.02 3.383 10.193 9.328 18.333 17.5 23.809 6.896 4.621 14.977 6.932 23.059 6.932 8.08 0 16.163-2.312 23.059-6.932 8.172-5.475 14.117-13.615 17.5-23.809 1.474.324 2.791.66 3.987 1.019 12.592 3.779 45.171 15.379 75.668 41.392 27.469 23.421 44.173 56.78 45.828 91.53.093 1.927.141 3.853.144 5.767h-332.372z"/></g></g></svg>